<svg width="58" height="32" viewBox="0 0 58 32" fill="none" xmlns="http://www.w3.org/2000/svg">
  <g clip-path="url(#clip0)">
    <path d="M31.7722 29.8003L29.871 28.8306L36.2398 16.5084L30.8216 6.24379L20.2466 26.7966L18.3454 25.8269L24.0964 14.6636L21.1734 9.22384L18.6306 4.42266L11.4539 18.2349L9.55273 17.2652L18.4643 0.118149C18.5356 -0.023758 18.7019 -0.023758 18.7732 0.118149L23.0507 8.25414L25.2608 12.3931L30.6077 2.01024C30.7028 1.79738 30.8691 1.79738 30.9879 2.01024L37.428 14.2142L42.8462 3.78408C42.9175 3.61852 43.1076 3.64217 43.1789 3.78408L47.4564 11.8964L55.4412 27.246L53.5401 28.2157L45.5553 12.8661L43.0363 8.06493L31.7722 29.8003Z" fill="#0775DE"/>
    <path d="M3.8736 8.37207H2.44775V12.2982H3.8736V8.37207Z" fill="#0775DE"/>
    <path d="M9.57673 8.37207H8.15088V12.2982H9.57673V8.37207Z" fill="#0775DE"/>
    <path d="M6.74909 5.91333C6.74909 5.96063 6.72533 5.98428 6.6778 5.98428H5.25196C5.20443 5.98428 5.18066 5.96063 5.18066 5.91333V3.90298C5.18066 3.85568 5.20443 3.83203 5.25196 3.83203H6.6778C6.72533 3.83203 6.74909 3.85568 6.74909 3.90298V5.91333Z" fill="#0775DE"/>
    <path d="M0.95042 8.58514C0.8316 8.58514 0.807836 8.53784 0.902892 8.46688L5.79829 4.94286C5.89335 4.87191 6.0597 4.87191 6.15475 4.94286L11.0502 8.46688C11.1452 8.53784 11.1214 8.58514 11.0026 8.58514H0.95042Z" fill="#0775DE"/>
    <path d="M55.9879 26.1809C55.2512 26.512 53.1599 27.8601 48.6448 28.8771C43.892 29.9414 36.2399 30.5564 26.7343 27.3162C20.9359 25.3295 15.8979 25.022 11.858 25.4241L11.1451 12.1558C11.1451 12.1558 11.1451 11.9902 10.9549 11.9902C10.7648 11.9902 1.21168 11.9902 1.02157 11.9902C0.831453 11.9902 0.855217 12.1558 0.855217 12.1558L-0.000289235 31.8099C-0.000289235 31.8099 -0.0240533 31.9281 0.071003 31.9754C0.166059 32.0227 0.28488 31.9518 0.28488 31.9518L1.78202 30.8875C1.87707 30.8165 11.2639 24.3125 26.0689 29.3502C36.0973 32.7559 44.2009 32.0937 49.2626 30.9348C53.8253 29.8941 56.1305 28.546 57.0573 28.073C57.7702 27.7182 57.4612 27.0797 57.4137 26.9851L57.1285 26.4647C57.081 26.3938 56.7483 25.8498 55.9879 26.1809ZM2.30483 28.1203L2.94646 14.1188H9.12512L9.74298 25.7079C6.39225 26.2992 3.84949 27.3398 2.30483 28.1203Z" fill="#0775DE"/>
  </g>
  <defs>
    <clipPath id="clip0">
    <rect width="58" height="32" fill="white"/>
  </clipPath>
  </defs>
</svg>
